<svg width="133" height="57" viewBox="0 0 133 57" fill="none" xmlns="http://www.w3.org/2000/svg">
<path d="M0 2.53844C0 1.1365 1.1365 0 2.53844 0C14.2213 0 23.6921 9.47082 23.6921 21.1537V56.9891H0V2.53844Z" fill="#E0E0E0"/>
<path d="M13.6602 26.6804C13.6602 17.2499 21.3051 9.60498 30.7356 9.60498H32.4431C33.8577 9.60498 35.0044 10.7517 35.0044 12.1663V56.9892H22.1979C17.4826 56.9892 13.6602 53.1668 13.6602 48.4515V26.6804Z" fill="white"/>
<path d="M28.1098 31.067C27.4605 31.067 26.9336 30.5401 26.9336 29.8909C26.9336 28.5947 25.8798 27.5386 24.5813 27.5386C23.2829 27.5386 22.229 28.5947 22.229 29.8909C22.229 30.5401 21.7021 31.067 21.0529 31.067C20.4037 31.067 19.8767 30.5401 19.8767 29.8909C19.8767 27.2963 21.9867 25.1863 24.5813 25.1863C27.1759 25.1863 29.2859 27.2963 29.2859 29.8909C29.2859 30.5424 28.759 31.067 28.1098 31.067Z" fill="#2CC898"/>
<path d="M13.996 31.067C13.3468 31.067 12.8199 30.5401 12.8199 29.8909C12.8199 28.5947 11.7637 27.5386 10.4676 27.5386C9.17149 27.5386 8.11531 28.5947 8.11531 29.8909C8.11531 30.5401 7.5884 31.067 6.93917 31.067C6.28994 31.067 5.76302 30.5401 5.76302 29.8909C5.76302 27.2963 7.87302 25.1863 10.4676 25.1863C13.0622 25.1863 15.1722 27.2963 15.1722 29.8909C15.1722 30.5424 14.6453 31.067 13.996 31.067Z" fill="#2CC898"/>
<path d="M30.9239 37.333C30.6998 37.0342 30.3529 36.8573 29.9849 36.8573H5.02296C4.65254 36.8573 4.30572 37.0318 4.08394 37.3306C3.85744 37.6318 3.78666 38.0167 3.88575 38.3777C5.59156 44.519 11.1927 48.8101 17.5016 48.8101C23.8105 48.8101 29.4116 44.519 31.1174 38.3777C31.2188 38.0167 31.148 37.6318 30.9239 37.333Z" fill="#2CC898"/>
<path d="M55.2819 30.201C55.2819 29.4055 55.4477 28.7106 55.7795 28.1163C56.1112 27.522 56.572 27.0648 57.1617 26.7448C57.7607 26.4248 58.4426 26.2648 59.2075 26.2648C60.1935 26.2648 61.0229 26.5345 61.6956 27.074C62.3683 27.6043 62.8014 28.3495 62.9949 29.3095H60.1198C59.9539 28.8067 59.6314 28.5552 59.1522 28.5552C58.8112 28.5552 58.5394 28.6969 58.3367 28.9804C58.1431 29.2547 58.0464 29.6616 58.0464 30.201C58.0464 30.7405 58.1431 31.1519 58.3367 31.4354C58.5394 31.7188 58.8112 31.8606 59.1522 31.8606C59.6406 31.8606 59.9631 31.6091 60.1198 31.1062H62.9949C62.8014 32.0572 62.3683 32.8023 61.6956 33.3418C61.0229 33.8813 60.1935 34.151 59.2075 34.151C58.4426 34.151 57.7607 33.991 57.1617 33.671C56.572 33.3509 56.1112 32.8938 55.7795 32.2995C55.4477 31.7051 55.2819 31.0057 55.2819 30.201Z" fill="white"/>
<path d="M67.728 34.151C66.954 34.151 66.2582 33.991 65.6408 33.671C65.0326 33.3509 64.5535 32.8938 64.2033 32.2995C63.8531 31.7051 63.678 31.0057 63.678 30.201C63.678 29.4055 63.8531 28.7106 64.2033 28.1163C64.5627 27.522 65.0465 27.0648 65.6547 26.7448C66.2721 26.4248 66.9678 26.2648 67.7419 26.2648C68.5159 26.2648 69.2071 26.4248 69.8153 26.7448C70.4327 27.0648 70.9165 27.522 71.2666 28.1163C71.626 28.7106 71.8057 29.4055 71.8057 30.201C71.8057 30.9965 71.626 31.696 71.2666 32.2995C70.9165 32.8938 70.4327 33.3509 69.8153 33.671C69.1979 33.991 68.5021 34.151 67.728 34.151ZM67.728 31.8194C68.1059 31.8194 68.4192 31.6823 68.668 31.408C68.926 31.1245 69.055 30.7222 69.055 30.201C69.055 29.6799 68.926 29.2821 68.668 29.0078C68.4192 28.7335 68.1105 28.5964 67.7419 28.5964C67.3733 28.5964 67.0646 28.7335 66.8158 29.0078C66.5669 29.2821 66.4425 29.6799 66.4425 30.201C66.4425 30.7313 66.5623 31.1337 66.8019 31.408C67.0415 31.6823 67.3502 31.8194 67.728 31.8194Z" fill="white"/>
<path d="M77.9809 26.2922C78.8747 26.2922 79.5843 26.5894 80.1096 27.1837C80.6348 27.7689 80.8974 28.5644 80.8974 29.5701V34.055H78.1882V29.9267C78.1882 29.4878 78.073 29.145 77.8426 28.8981C77.6123 28.6421 77.3036 28.5141 76.9165 28.5141C76.5111 28.5141 76.1931 28.6421 75.9628 28.8981C75.7324 29.145 75.6172 29.4878 75.6172 29.9267V34.055H72.908V26.3608H75.6172V27.458C75.8568 27.1105 76.1793 26.8317 76.5848 26.6214C76.9902 26.4019 77.4556 26.2922 77.9809 26.2922Z" fill="white"/>
<path d="M81.9417 30.201C81.9417 29.4055 82.0845 28.7106 82.3702 28.1163C82.6651 27.522 83.0659 27.0648 83.5728 26.7448C84.0796 26.4248 84.6417 26.2648 85.2591 26.2648C85.7567 26.2648 86.1991 26.3699 86.5861 26.5802C86.9823 26.7814 87.291 27.0603 87.5122 27.4168V23.9058H90.2353V34.055H87.5122V32.9852C87.3003 33.3418 87.0008 33.6253 86.6137 33.8356C86.2267 34.0459 85.7706 34.151 85.2453 34.151C84.6279 34.151 84.0658 33.991 83.5589 33.671C83.0613 33.3509 82.6651 32.8938 82.3702 32.2995C82.0845 31.696 81.9417 30.9965 81.9417 30.201ZM87.526 30.201C87.526 29.7073 87.3878 29.3187 87.1114 29.0352C86.8441 28.7518 86.5124 28.6101 86.1161 28.6101C85.7107 28.6101 85.3743 28.7518 85.1071 29.0352C84.8398 29.3095 84.7062 29.6981 84.7062 30.201C84.7062 30.6948 84.8398 31.0879 85.1071 31.3805C85.3743 31.664 85.7107 31.8057 86.1161 31.8057C86.5124 31.8057 86.8441 31.664 87.1114 31.3805C87.3878 31.0971 87.526 30.7039 87.526 30.201Z" fill="white"/>
<path d="M95.3868 34.151C94.6127 34.151 93.917 33.991 93.2996 33.671C92.6914 33.3509 92.2122 32.8938 91.862 32.2995C91.5118 31.7051 91.3368 31.0057 91.3368 30.201C91.3368 29.4055 91.5118 28.7106 91.862 28.1163C92.2214 27.522 92.7052 27.0648 93.3134 26.7448C93.9308 26.4248 94.6265 26.2648 95.4006 26.2648C96.1747 26.2648 96.8658 26.4248 97.474 26.7448C98.0914 27.0648 98.5752 27.522 98.9254 28.1163C99.2848 28.7106 99.4645 29.4055 99.4645 30.201C99.4645 30.9965 99.2848 31.696 98.9254 32.2995C98.5752 32.8938 98.0914 33.3509 97.474 33.671C96.8566 33.991 96.1608 34.151 95.3868 34.151ZM95.3868 31.8194C95.7646 31.8194 96.0779 31.6823 96.3267 31.408C96.5847 31.1245 96.7138 30.7222 96.7138 30.201C96.7138 29.6799 96.5847 29.2821 96.3267 29.0078C96.0779 28.7335 95.7692 28.5964 95.4006 28.5964C95.032 28.5964 94.7233 28.7335 94.4745 29.0078C94.2257 29.2821 94.1013 29.6799 94.1013 30.201C94.1013 30.7313 94.2211 31.1337 94.4607 31.408C94.7003 31.6823 95.009 31.8194 95.3868 31.8194Z" fill="white"/>
<path d="M56.4237 38.6546C58.4727 38.6546 60.0949 39.3483 61.2902 40.7357C62.5068 42.1017 63.1151 43.9586 63.1151 46.3065V56.7759H56.8399V47.1389C56.8399 46.1144 56.5731 45.314 56.0395 44.7377C55.5059 44.1401 54.7908 43.8412 53.8944 43.8412C52.9552 43.8412 52.2188 44.1401 51.6852 44.7377C51.1516 45.314 50.8848 46.1144 50.8848 47.1389V56.7759H44.6096V33.0837H50.8848V41.376C51.4398 40.5649 52.1868 39.9139 53.126 39.423C54.0865 38.9107 55.1857 38.6546 56.4237 38.6546Z" fill="white"/>
<path d="M74.9146 57C73.1217 57 71.5102 56.6264 70.0801 55.8794C68.6714 55.1324 67.5615 54.0651 66.7504 52.6778C65.9394 51.2904 65.5338 49.6575 65.5338 47.7793C65.5338 45.9223 65.9394 44.3001 66.7504 42.9128C67.5829 41.5254 68.7034 40.4582 70.1122 39.7111C71.5422 38.9641 73.1537 38.5906 74.9466 38.5906C76.7396 38.5906 78.3404 38.9641 79.7491 39.7111C81.1792 40.4582 82.2997 41.5254 83.1108 42.9128C83.9432 44.3001 84.3594 45.9223 84.3594 47.7793C84.3594 49.6362 83.9432 51.269 83.1108 52.6778C82.2997 54.0651 81.1792 55.1324 79.7491 55.8794C78.319 56.6264 76.7075 57 74.9146 57ZM74.9146 51.5572C75.7897 51.5572 76.5154 51.237 77.0917 50.5967C77.6894 49.935 77.9882 48.9959 77.9882 47.7793C77.9882 46.5626 77.6894 45.6342 77.0917 44.9938C76.5154 44.3535 75.8004 44.0333 74.9466 44.0333C74.0929 44.0333 73.3778 44.3535 72.8015 44.9938C72.2252 45.6342 71.9371 46.5626 71.9371 47.7793C71.9371 49.0172 72.2146 49.9564 72.7695 50.5967C73.3245 51.237 74.0395 51.5572 74.9146 51.5572Z" fill="white"/>
<path d="M93.1877 41.9843C93.8921 40.9598 94.7458 40.1487 95.749 39.551C96.7522 38.9534 97.8301 38.6546 98.9827 38.6546V45.346H97.2218C95.8557 45.346 94.8419 45.6128 94.1802 46.1464C93.5185 46.68 93.1877 47.6085 93.1877 48.9318V56.7759H86.9125V38.8147H93.1877V41.9843Z" fill="white"/>
<path d="M111.83 51.4291V56.7759H109.108C104.519 56.7759 102.225 54.5027 102.225 49.9564V44.0333H100.016V38.8147H102.225V34.4604H108.532V38.8147H111.798V44.0333H108.532V50.0524C108.532 50.5433 108.639 50.8955 108.852 51.109C109.087 51.3224 109.471 51.4291 110.005 51.4291H111.83Z" fill="white"/>
<path d="M113.683 47.7793C113.683 45.9223 114.014 44.3001 114.676 42.9128C115.359 41.5254 116.277 40.4582 117.429 39.7111C118.603 38.9641 119.905 38.5906 121.335 38.5906C122.573 38.5906 123.641 38.836 124.537 39.3269C125.433 39.8179 126.127 40.4795 126.618 41.3119V38.8147H132.893V56.7759H126.618V54.2786C126.127 55.111 125.423 55.7727 124.505 56.2636C123.609 56.7545 122.552 57 121.335 57C119.905 57 118.603 56.6264 117.429 55.8794C116.277 55.1324 115.359 54.0651 114.676 52.6778C114.014 51.269 113.683 49.6362 113.683 47.7793ZM126.618 47.7793C126.618 46.6267 126.298 45.7195 125.658 45.0579C125.039 44.3962 124.27 44.0654 123.352 44.0654C122.413 44.0654 121.634 44.3962 121.015 45.0579C120.396 45.6982 120.087 46.6053 120.087 47.7793C120.087 48.9318 120.396 49.8496 121.015 50.5327C121.634 51.1943 122.413 51.5252 123.352 51.5252C124.27 51.5252 125.039 51.1943 125.658 50.5327C126.298 49.871 126.618 48.9532 126.618 47.7793Z" fill="white"/>
</svg>
